<?xml version="1.0" encoding="UTF-8"?>
<!DOCTYPE svg PUBLIC "-//W3C//DTD SVG 1.1//EN" "http://www.w3.org/Graphics/SVG/1.1/DTD/svg11.dtd">
<!-- Creator: CorelDRAW X7 -->
<svg xmlns="http://www.w3.org/2000/svg" xml:space="preserve" width="2000px" height="2829px" version="1.1" style="shape-rendering:geometricPrecision; text-rendering:geometricPrecision; image-rendering:optimizeQuality; fill-rule:evenodd; clip-rule:evenodd"
viewBox="0 0 2000 2829"
 xmlns:xlink="http://www.w3.org/1999/xlink">
 <defs>
  <style type="text/css">
   <![CDATA[
    .fil0 {fill:black}
    .fil1 {fill:#FEF7DA}
   ]]>
  </style>
     <clipPath id="id0">
      <rect x="365" y="312" width="1340" height="1340"/>
     </clipPath>
 </defs>
 <g id="Capa_x0020_1">
  <metadata id="CorelCorpID_0Corel-Layer"/>
  <g id="_672759287184">
   <g id="_76635586768">
    <g style="clip-path:url(#id0)">
     <image x="365" y="312" width="1340" height="1340" xlink:href="Tenerife1_Images\Tenerife1_ImgID1.png"/>
    </g>
    <path class="fil0" d="M1420 484c-19,-9 -13,1 -22,5 -2,1 1,0 -2,1 0,0 0,0 -1,0 -4,2 -5,2 -10,-1 -11,-7 -9,-5 -20,-2 -4,-17 -22,-8 -32,-1 -4,3 -5,11 -6,18 -3,13 -1,10 -13,13 -5,2 -15,3 -19,7 -4,4 -4,9 -16,9 -31,1 -13,-12 -46,12 -8,5 -5,10 -12,14 -3,2 -5,3 -8,5 -8,4 -24,18 -25,27 -1,13 2,9 -5,19 -6,9 2,23 -17,33 -5,2 -13,5 -14,12 -14,-2 -10,-1 -13,9 -1,4 -3,3 -5,7 -4,4 2,14 -3,14 -10,0 -8,-4 -15,4 -2,2 -12,6 -12,9 0,6 4,6 4,13 -4,4 -6,5 -13,8 -11,5 -6,0 -15,0 -7,0 -11,4 -13,9 -4,8 -4,16 -13,20 -15,8 -31,14 -47,7 -4,-3 0,-2 -5,-2 -5,0 -1,3 -8,3 -7,1 -11,-4 -17,4 0,0 -2,3 -2,3 -3,3 -2,0 -3,4 -12,-6 -14,8 -21,11 -8,3 -5,-1 -13,6 -15,13 -9,4 -22,1 -5,3 -6,6 -9,11 -13,0 -20,-1 -33,-1 -10,0 -15,3 -22,-2 -11,-8 -10,-1 -18,-1 -8,0 -1,-9 -18,-6 -17,3 -20,-17 -27,8 -2,6 0,3 -3,5 -3,2 -7,2 -11,0 -6,-2 -3,-6 -11,-6 -6,0 -7,12 -8,19 -24,5 -23,-6 -31,-6 -5,0 -11,12 -12,16 -7,-5 -6,-10 -20,-2 -4,2 -17,14 -18,14 -8,0 -19,-13 -26,-3 -1,-1 -3,-2 -4,-2 -9,0 -27,10 -38,13 -1,-6 -9,-23 -14,-23 -5,0 -5,2 -9,3 -7,-4 -12,-9 -19,-13 0,-9 -1,-13 -11,-13 -12,0 -16,3 -25,7 -4,1 -5,0 -9,1 -2,1 -10,7 -12,9 -5,3 -10,5 -11,12 -8,0 -11,-2 -15,4 -3,4 -4,10 -12,8 -5,-1 0,-2 -6,-1 -8,1 -13,10 -21,9 -11,-1 -8,-6 -30,4 -6,2 -7,6 -10,11 -1,2 -6,12 -6,14 0,6 5,24 10,24 12,0 6,-3 19,4 16,9 11,13 16,24 3,6 16,15 21,19 0,6 1,9 2,14 0,6 2,7 6,9 10,5 10,7 17,15 5,6 4,3 2,10 0,4 1,7 3,11 4,9 4,16 16,16 0,17 17,1 17,28 0,4 -4,11 -5,16 -1,3 -5,5 -5,8 1,8 2,4 5,9 5,6 0,8 0,13 0,4 10,13 10,22 -1,15 -5,19 7,29 5,4 2,-1 4,4 3,6 0,8 7,14 5,5 7,15 8,21 4,1 9,2 11,3 13,4 8,27 20,47l30 51c8,13 9,13 16,23 4,4 4,3 11,3 1,5 3,7 5,11 7,12 23,14 30,25 5,6 5,20 7,29 2,12 -5,16 -5,28 0,6 13,14 26,11 1,1 4,6 6,7 3,3 4,3 10,3 0,23 5,20 7,27 1,4 -3,22 -3,30 0,5 8,16 12,19 4,3 17,8 23,9 30,5 15,-5 34,-9 4,-1 6,-4 10,-6 7,5 10,2 19,2 6,0 7,12 17,1 5,-6 2,-2 10,-4 9,-3 10,-16 19,-20 26,-10 46,-15 75,-16 7,0 20,-3 25,-1 12,5 12,19 26,2 12,-17 6,-10 4,-23 11,0 14,-3 15,-13 16,0 9,-13 19,-16 2,-1 4,-1 6,-3 3,-2 3,-7 6,-9 10,-9 7,-4 13,-17 5,-10 15,-1 20,-11 3,-7 0,-15 7,-20l15 -16c2,-3 4,-5 6,-8 9,-14 19,2 19,-27 4,-2 7,-4 11,-7 4,-2 6,-4 7,-9 4,-11 2,-4 10,-7 5,-1 6,-5 6,-11 9,2 11,0 17,-8 19,-24 0,-15 -4,-29 2,-2 1,-1 4,-3 5,-3 9,-5 9,-14 0,-8 -5,-6 -4,-12 1,-5 4,-9 3,-14 -2,-11 -2,-6 3,-14 12,-18 2,-15 2,-24 0,-5 16,-23 19,-28 6,-8 4,-8 6,-18 1,-6 1,-4 3,-8l31 -55c7,-11 1,-23 6,-30 7,-10 21,-22 30,-31 6,-6 5,-7 6,-18 3,-19 1,-21 -5,-39 -2,-7 -4,-10 -5,-18 -1,-7 -1,-18 -3,-22 3,-2 6,-4 8,-9 3,-7 3,-23 7,-28 4,-6 18,-10 26,-19 5,-7 9,-8 14,-13 6,-6 5,-2 14,-2 7,0 28,-20 35,-26 19,-17 7,-13 31,-32 19,-16 11,-23 31,-31 10,-4 22,-4 25,-17 1,-6 2,-11 3,-17 1,-5 12,-25 15,-27 1,-2 12,-6 15,-7 7,-2 12,1 14,-6 7,5 12,1 19,-4 4,-2 10,-4 13,-7 4,-3 7,-7 11,-11 5,-6 3,-6 13,-7 15,-2 0,-5 24,-16 3,-2 5,-3 8,-4 13,-6 26,13 33,-9 1,-4 3,-9 5,-13 9,2 11,5 19,3 3,-11 -1,-7 -3,-15 -1,-2 0,-10 1,-12 6,-13 13,3 13,-30 0,-4 -4,-5 -7,-6 0,-10 1,-9 -4,-15 -3,-4 -4,-7 -12,-7 8,-12 1,-14 -10,-17 -10,-3 -18,-7 -28,-10 0,-16 -11,-15 -16,-6 -4,8 3,9 -6,10 -11,2 -6,-2 -14,4 -21,18 -24,15 -51,24 -23,7 -19,8 -40,-2 -5,-2 -8,-4 -15,-3 -4,0 -11,2 -16,1 -8,0 -17,-9 -24,-12 -6,-2 -6,2 -11,5z"/>
    <path class="fil1" d="M1039 770l2 14c-18,7 -20,-2 -26,13 -6,12 -13,7 -29,7 -12,26 -12,17 -7,50 8,48 6,44 2,91 -1,14 -3,14 -9,25 -7,12 -5,9 -20,13 -11,3 -25,10 -28,3l-2 -14c-1,-6 -2,-13 -2,-19 -10,3 -15,9 -28,11 -25,5 -58,12 -82,19 -7,2 -6,5 -9,12 -3,10 -7,20 -11,30 -3,9 -9,18 -12,28 -4,9 6,56 7,70 5,2 10,5 15,7 7,4 9,8 13,11 3,2 33,5 40,2 5,-3 11,-6 15,-9 8,-4 3,-10 10,-14 8,-3 28,-6 37,-10 4,-2 18,-19 22,-24 9,-11 32,-14 42,-28 3,-4 4,-12 6,-18 3,-6 8,-9 8,-15 1,-6 -2,-15 -1,-22 3,-5 10,-7 14,-11l14 -13c20,-22 16,-17 30,-10 3,-4 6,-6 10,-9 14,-11 -4,0 16,-26 4,-4 7,-8 10,-12 6,-8 2,-24 8,-33 1,-2 10,-7 13,-8 6,-4 9,-4 11,-10 6,-27 3,-24 -10,-44 -11,-16 -17,-8 -35,-28 -7,-9 -16,-15 -21,-21l3 -15 -16 7z"/>
    <path class="fil1" d="M999 1005c0,6 2,18 1,22 0,5 -6,10 -8,16 -2,6 -3,14 -7,18 -15,19 -35,20 -45,31 -10,13 -14,21 -25,26 2,4 6,10 9,14 5,8 4,6 14,10 12,3 12,10 22,26 21,36 11,29 43,52 6,5 8,5 11,13l16 31c5,8 6,7 15,10 27,7 12,15 43,49 1,1 1,1 2,2 11,-11 6,-17 24,-21 1,-19 0,-16 14,-24 14,-9 2,-19 20,-20 0,-9 8,-15 18,-12 2,-3 3,-3 5,-8 -15,-6 -11,-11 -7,-23 3,-9 2,-6 9,-10 -10,-14 -1,-10 0,-23 0,-5 -2,-9 -2,-14 2,-5 5,-4 7,-10 -4,-7 -10,-9 -17,-12 -11,-6 -7,-9 -12,-19 -4,-2 -19,-8 -22,-10 -4,-4 -17,-23 -22,-29l-17 -17c-12,-9 -32,-31 -45,-41 -6,-5 -11,-10 -18,-16 -6,-5 -11,-11 -17,-16l-9 5z"/>
    <path class="fil1" d="M883 1126c-2,5 -3,17 0,21 6,9 6,2 7,19 0,8 1,17 1,25 1,14 1,11 -4,23 -6,16 17,10 -6,31 -13,13 6,26 8,36 4,18 -6,6 14,37 9,14 0,18 2,45 2,34 -2,20 -6,33 -1,3 -1,7 -1,11 -2,28 8,9 12,40l61 -5c8,1 9,6 16,8 6,-6 0,-5 2,-18 1,-11 4,-8 14,-10 2,-3 2,-7 4,-9 3,-5 5,-3 10,-5 4,-6 4,-12 10,-14 8,-4 2,2 7,-5 11,-16 4,7 17,-22 4,-9 7,-5 17,-8l1 -2c3,-8 -1,4 1,-2 1,-4 1,-10 3,-13 2,-4 9,-7 12,-11 -3,-5 -17,-20 -21,-28 -11,-20 -3,-18 -24,-24 -17,-4 -20,-20 -31,-41 -6,-12 -12,-14 -25,-23 -6,-5 -9,-5 -13,-12l-26 -46c-9,-18 -15,-1 -27,-21 -3,-5 -8,-12 -9,-16l-26 6z"/>
    <path class="fil1" d="M538 1094c2,7 7,14 7,21 -1,11 -6,15 4,20 10,5 4,11 10,18 6,8 6,9 9,20 27,3 20,31 27,42 12,-3 24,-10 37,-11 49,-6 30,2 77,-20 14,-7 15,-11 28,-22 4,-4 7,-7 12,-11l26 -24c5,-5 3,-4 1,-19 -2,-14 -4,-28 -6,-42 -2,-13 3,-22 10,-36 -13,-2 -26,1 -39,-1 -16,-3 -58,-11 -71,-10 -40,5 -28,3 -64,19 -29,12 -25,11 -47,35 -4,4 -7,8 -10,11 -5,4 -7,5 -11,10z"/>
    <path class="fil1" d="M1432 496c-6,14 10,41 5,59 -4,15 -14,4 -18,18 -3,8 -5,19 -7,28 23,27 30,-3 5,77 -3,10 -3,9 -10,14 -10,8 -5,27 -10,35 -2,2 -13,6 -18,5l-1 -11c-7,-1 -31,-6 -37,-9 0,0 0,1 0,1l-11 17c-4,5 -10,12 -12,17 10,18 15,15 29,17 5,-5 4,-8 11,0 4,4 7,7 11,10 11,-8 10,-7 19,-20 5,-8 16,-15 22,-20 7,-7 12,-19 17,-24 7,-5 23,-7 30,-12 2,-6 2,-15 4,-21 2,-7 6,-12 9,-18 12,-19 8,-14 20,-19 13,-6 -6,-5 14,-6 9,-1 2,-3 14,-7 8,-3 11,-5 20,-6 7,0 7,-3 15,-12 16,-19 10,3 23,-14 5,-6 11,-7 18,-11 18,-8 12,-5 31,-3 4,-8 6,-22 21,-24 1,-6 1,-14 4,-19 4,-4 10,-4 10,-13 -3,-4 -6,-2 -7,-8 -1,-5 1,-10 -3,-13 -8,-7 -11,4 -13,-18 -8,-2 -18,-7 -26,-9 -7,-1 -7,1 -13,3 -7,2 -8,-1 -13,3 -8,5 -10,11 -20,14l-53 17c-10,3 -16,-2 -25,-5 -15,-7 -11,-6 -28,-4 -15,2 -16,-5 -27,-9z"/>
    <path class="fil1" d="M1219 576c3,6 9,20 13,24l20 19c7,6 17,12 18,19 1,9 4,28 3,36 6,-3 22,3 30,6 17,5 14,5 24,15 5,4 9,3 13,7 6,4 2,4 13,7 10,2 23,4 32,7l1 8c7,-1 6,-5 7,-14 7,-40 9,-6 20,-42 4,-11 7,-21 10,-32 5,-16 5,-13 -11,-26 -10,-7 -9,-4 -2,-28 7,-28 3,-16 17,-25 9,-6 2,-24 1,-33 -3,-16 -2,-21 -8,-24 -2,-2 -6,-3 -8,-4 -5,5 -2,7 -10,8 -13,2 -9,5 -16,2 -4,-2 -8,-7 -12,-7 -6,0 -7,5 -16,3 -5,-4 -3,-5 -6,-11 -11,5 -9,4 -12,16 -5,24 -2,17 -29,25 -9,3 -3,2 -8,7 -2,1 -7,3 -10,4 -25,11 -26,-6 -44,7 -18,13 -6,7 -13,15 -1,3 -14,10 -17,11z"/>
    <path class="fil1" d="M1095 915c-1,12 -13,22 -19,31 -3,4 -1,17 -23,27 1,5 7,21 10,24 5,7 60,24 66,33 9,12 5,20 35,32 10,4 15,5 22,11 6,6 10,11 21,13 5,-14 30,-51 33,-60 7,-16 -9,-18 13,-36l23 -25c11,-13 1,-44 -4,-50 -5,3 -9,8 -14,12 -13,9 -21,-12 -66,-8 -24,3 -23,3 -45,-4 -11,-4 -38,-1 -52,0z"/>
    <path class="fil1" d="M598 1222l39 68c2,1 5,0 7,1 3,2 2,3 5,5 4,4 1,-1 7,7 3,3 1,1 3,3 2,1 3,0 5,4 3,8 -6,3 13,17 23,16 18,18 25,52 13,0 9,1 26,-16 6,-7 30,-29 31,-33 1,-7 -2,-14 -1,-21 3,-14 13,-11 9,-33 -2,-21 -3,-19 4,-36 5,-13 12,-36 21,-44 6,-6 5,-6 8,-15 3,-11 7,-23 10,-34 -15,-11 1,-4 -26,-17 -8,3 -54,50 -64,56l-36 17c-15,7 -43,4 -60,10 -9,2 -18,6 -26,9z"/>
    <path class="fil1" d="M728 824c-4,5 -6,11 -11,15 -15,2 -12,-5 -18,-7 -2,8 -1,25 -1,35 -1,14 -12,13 -9,26 10,42 13,75 44,105 27,26 12,17 50,24 12,-19 11,-41 22,-45 6,-2 13,-3 19,-5 9,-2 26,-4 30,-17 3,-12 -5,-24 -10,-34 -7,-16 -8,-16 -18,-26 -10,-10 -8,-13 -13,-32 -3,-11 -4,-8 -10,-13 -3,-3 -14,-22 -18,-28 -4,-8 -4,-8 -14,-9 -3,5 -1,5 -6,9 -8,6 -14,5 -26,5 -6,0 -7,-1 -11,-3z"/>
    <path class="fil1" d="M701 1386l-3 11c-1,8 3,1 21,7 25,7 15,27 22,37 2,4 5,5 5,11 -1,16 -16,33 16,44 16,5 15,0 22,-6 7,-6 7,-1 13,-5 4,-1 5,-6 11,-5 8,1 4,5 13,3 10,-1 7,-1 13,3 6,-7 5,-2 6,-15l2 -67c0,-17 -6,-21 -6,-39 0,-14 1,-32 0,-46 -9,-4 -19,-14 -30,-14 -24,2 -18,-4 -33,-12 -7,17 -8,10 -7,33 0,10 -8,15 -17,25l-31 31c-5,6 -7,4 -17,4z"/>
    <path class="fil1" d="M538 818c-13,2 -9,-3 -20,4 -15,12 -2,7 -11,14 -3,3 -9,2 -15,2 -3,6 -2,7 -7,10 -20,10 -17,1 -24,4 -3,2 -8,5 -11,7 -9,3 -11,-5 -27,1 -9,3 -16,19 -8,22 0,0 2,1 3,1 12,5 31,14 35,28 3,13 0,7 15,20 9,9 8,11 10,25 16,7 12,8 23,22 6,7 6,5 4,15 -1,5 2,12 7,13 6,-2 4,-10 14,-15 4,-2 7,-3 10,-5 13,-7 -4,-6 22,-9 0,-6 -4,-13 -5,-20 -1,-9 6,-9 10,-16 -3,-3 -14,-13 -16,-16 -7,-11 -6,-68 -5,-79l5 -35c-9,1 -5,1 -9,7z"/>
    <path class="fil1" d="M837 1311c1,-19 -4,-12 19,-28 6,-4 11,-6 13,-12 3,-9 1,-15 1,-24l14 -15c-4,-10 -8,-10 -3,-21 5,-12 4,-11 3,-25 0,-6 0,-22 -2,-27 -1,-5 -3,-5 -6,-8 -3,-4 -2,-5 -2,-12 -9,4 -19,13 -30,12 -32,-1 -27,-6 -30,8 -17,62 -8,17 -27,60 -4,10 -9,20 -13,30 -3,7 -1,30 2,37 2,2 10,8 12,10 6,4 7,3 17,3 15,-2 21,8 32,12z"/>
    <path class="fil1" d="M917 803c-5,14 -16,5 -41,5 -4,11 0,40 5,49l39 77c10,19 6,21 10,47 5,0 16,-4 22,-5 13,-3 11,-4 16,-14 8,-14 7,-29 9,-50 2,-23 0,-31 -4,-52 -3,-20 -9,-31 1,-48 -7,-3 -7,0 -10,-7 -2,-4 -2,-8 -5,-12 -5,2 -6,0 -11,1 -7,2 -10,15 -31,9z"/>
    <path class="fil1" d="M566 983c-4,1 -13,1 -16,2 -5,1 -4,4 -10,7 -11,6 -13,3 -19,16l1 2c6,11 -2,6 10,13 8,4 6,9 8,18 2,15 0,11 -4,21 -3,6 -1,17 2,22l36 -36c9,-10 35,-19 48,-25 10,-4 15,-7 27,-8 10,-2 24,-4 34,-3 15,2 50,10 62,10 -9,-3 -78,-38 -86,-42 -14,-8 -28,-16 -42,-24 -11,-6 -9,-6 -24,-8 -15,-2 -6,7 -24,-2 -19,13 0,19 -3,37z"/>
    <path class="fil1" d="M1190 807c-21,12 -28,1 -33,19 7,9 37,26 50,44 3,5 6,10 11,13 5,3 9,6 14,9 17,10 14,10 38,10 -1,-7 -5,-26 -2,-32 5,-10 4,8 11,-24 3,-16 2,-14 14,-21 10,-6 14,-8 20,-18 -15,-3 -23,-6 -34,-13 -8,-6 0,-6 -12,-12 -8,-3 -8,-5 -18,-4 -5,1 -15,3 -20,3 -7,-1 -10,-5 -18,-2 -6,2 -13,5 -16,8 -6,7 -3,9 -5,20z"/>
    <path class="fil1" d="M1013 995c3,2 6,7 10,9l73 67c11,12 3,0 19,20 18,24 10,21 32,29 20,8 3,14 18,22 5,3 9,5 14,7 -4,-7 -2,-9 2,-14 10,-13 20,-25 23,-41 -3,-3 -7,-3 -11,-6 -16,-10 -2,-7 -34,-21 -13,-5 -13,-6 -22,-13 -9,-7 -10,-18 -15,-22l-50 -22c-14,-6 -13,-3 -19,-16 -14,-33 -12,-28 -40,1z"/>
    <path class="fil1" d="M844 1301l-1 69c1,8 3,13 5,20 3,12 -2,72 -2,90 5,-2 8,-8 11,-11 5,-6 5,-6 13,-8 11,-4 22,-9 33,-12 -2,-11 -2,-13 -8,-20 -7,-8 -4,-11 -4,-23 1,-20 3,-12 7,-21 2,-6 0,-19 0,-25 -1,-10 1,-17 1,-26 1,-10 -3,-14 -7,-21 -4,-5 -8,-10 -9,-19 -1,-17 -1,-10 -6,-22 -3,4 -2,5 -6,9 -2,2 -7,4 -10,6l-13 10c-5,3 -2,0 -4,4z"/>
    <path class="fil1" d="M1254 713c1,9 -3,11 -7,16 -5,8 -27,35 -27,42 15,7 24,-2 37,0 4,0 12,5 16,7 11,5 4,5 11,11 6,4 23,11 33,12 8,1 8,-5 13,-8 6,-5 12,-1 20,-1 2,-3 3,-4 6,-6 3,-3 4,-4 7,-7 -13,-12 -5,-6 -32,-10 -7,-1 -7,-4 -12,-9 -13,-15 -12,-10 3,-31 18,-24 11,-21 -1,-31 -2,-2 -6,-7 -11,-9 -4,-2 -27,-8 -31,-9 -8,8 -17,27 -23,32l-2 1z"/>
    <path class="fil0" d="M1298 642c6,-3 19,-14 24,-18 6,-5 18,-15 25,-17 9,6 2,9 17,2 14,-6 20,-10 28,-27 2,-5 8,-13 8,-19 -8,-9 -37,-17 -52,-21 -33,-10 -30,-5 -43,21 -4,7 -3,5 -9,9 -21,13 -26,11 -28,28 -1,17 -5,18 7,27 5,4 17,13 23,15z"/>
    <path class="fil1" d="M1097 907c12,1 41,-2 50,1 21,6 17,7 41,5 24,-3 24,-3 44,4 18,5 18,9 32,-5 2,-2 1,0 2,-2 -9,0 -15,1 -22,-3 -29,-18 -28,-12 -44,-34 -7,-10 -30,-27 -41,-36 -10,-9 -8,-5 -10,-11 0,-3 1,0 0,-3 -7,8 -17,3 -24,45 -2,15 -3,12 -15,19 -12,7 -10,4 -13,20z"/>
    <path class="fil1" d="M1187 644c13,13 20,21 28,41 3,9 4,29 16,49l2 3c19,-20 13,-27 13,-29 3,-9 4,11 10,-21 6,-23 4,-14 10,-19 -4,-39 3,-25 -31,-55 -3,-4 -7,-5 -9,-9 -4,-5 -9,-17 -13,-23 -18,12 -8,21 -14,31 -2,4 -2,1 -4,6 0,4 0,6 -2,10 -2,6 -4,11 -6,16z"/>
    <path class="fil1" d="M1276 592c-1,8 -3,18 -2,26 8,6 15,11 23,16 12,-5 40,-35 53,-36l4 7c21,-4 32,-21 38,-40 -12,-7 -53,-22 -70,-20 -5,7 -11,25 -17,29l-29 18z"/>
    <path class="fil1" d="M653 844c8,14 2,39 0,55 -4,20 3,36 9,53 4,13 5,11 12,20 3,3 11,14 15,16 4,3 16,7 21,10 8,3 14,7 22,10 -4,-5 -9,-9 -13,-15 -22,-33 -18,-22 -27,-59 -2,-8 -11,-42 -11,-47 1,-14 11,4 10,-48 -6,3 -9,11 -17,10 -10,-2 -12,-9 -21,-5z"/>
    <path class="fil1" d="M610 865c2,15 -2,19 -11,38 -4,10 -17,31 -8,37 8,3 12,0 22,6 6,4 13,7 18,10 8,4 31,19 37,20 -10,-12 -8,-10 -14,-24 -22,-59 2,-65 -6,-100l-13 -1c-4,5 -2,7 -9,9 -5,3 -11,5 -16,5z"/>
    <path class="fil1" d="M582 942c3,-15 -10,5 9,-37 4,-9 14,-27 13,-36 -1,-9 -7,-20 -11,-27 -4,-6 -2,-3 -8,-5 -14,-4 -21,-15 -31,-20 -7,14 -7,74 -4,94 2,10 2,9 7,15 4,4 16,19 25,16z"/>
    <path class="fil1" d="M1126 839c7,-20 18,-16 28,-28 -6,-8 -5,-9 -12,-16 -9,-7 -8,-4 -12,-17 -1,-2 -3,-8 -4,-11 -1,-1 -10,-12 -14,-14 -7,-3 -5,0 -11,1 -11,-10 -4,-17 -22,-21 -6,24 -13,24 -16,32 -5,12 -6,10 13,27 19,17 6,8 28,20 10,7 14,21 22,27z"/>
    <path class="fil1" d="M788 813c4,8 17,29 22,34 8,8 7,4 10,18 8,30 5,16 22,36 4,4 7,13 10,19 5,13 15,31 5,44 9,-1 28,-4 35,-7 -13,-25 -29,-49 -35,-71 -5,-20 -5,-16 -19,-33 -3,-4 -5,-6 -6,-13 -1,-12 -8,-17 -10,-25 -1,-6 4,-8 1,-13 -3,-4 -6,-1 -14,-2 -9,-1 -7,0 -10,6 -3,6 -5,4 -11,7z"/>
    <path class="fil1" d="M900 955l18 -9c-3,-9 -45,-86 -47,-94 -1,-7 -4,-36 -3,-43 -4,0 -10,2 -14,1 -8,-2 -6,-9 -17,-4 -15,5 -4,11 1,25 5,13 -6,2 10,23 25,31 6,21 27,57l25 44z"/>
    <path class="fil1" d="M1097 734l5 10c11,1 14,2 22,9 18,19 6,22 23,38 18,18 4,4 14,18l23 -6c0,-26 5,-10 13,-32 -20,-27 -20,-15 -48,-29 -9,-4 -17,-8 -26,-13 -6,-3 -7,-4 -14,-2 -4,2 -9,4 -12,7z"/>
    <path class="fil1" d="M1147 678c4,11 33,23 38,37 4,9 12,16 17,21 6,7 7,18 14,24 12,-17 14,-12 7,-26 -15,-34 -8,-33 -22,-61 -5,-10 -13,-20 -20,-24 -5,4 -15,7 -17,14 -2,4 -1,7 -6,9 -7,2 -7,-1 -11,6z"/>
    <path class="fil1" d="M1129 698l-7 7c3,7 -1,10 -3,15 13,6 36,20 49,23 17,4 14,0 24,12 3,3 5,5 8,9 6,8 3,5 5,10l6 -3c-2,-20 -25,-40 -28,-45 -8,-12 3,-6 -16,-21 -6,-5 -15,-11 -21,-16 -6,9 0,11 -17,9z"/>
    <path class="fil1" d="M965 783c-1,5 2,9 3,13 3,7 2,8 10,9l4 -8 25 1c6,-20 10,-12 25,-19 0,-9 1,-7 -19,-8 -9,0 -18,-1 -27,-1 -6,10 -8,10 -21,13z"/>
   </g>
  </g>
 </g>
</svg>
