<?xml version="1.0" encoding="UTF-8"?>
<!DOCTYPE svg PUBLIC "-//W3C//DTD SVG 1.1//EN" "http://www.w3.org/Graphics/SVG/1.1/DTD/svg11.dtd">
<!-- Creator: CorelDRAW X7 -->
<svg xmlns="http://www.w3.org/2000/svg" xml:space="preserve" width="1000px" height="1415px" version="1.1" style="shape-rendering:geometricPrecision; text-rendering:geometricPrecision; image-rendering:optimizeQuality; fill-rule:evenodd; clip-rule:evenodd"
viewBox="0 0 1000 1414"
 xmlns:xlink="http://www.w3.org/1999/xlink">
 <defs>
  <style type="text/css">
   <![CDATA[
    .fil0 {fill:black}
    .fil1 {fill:#FEF7DA}
   ]]>
  </style>
 </defs>
 <g id="Capa_x0020_1">
  <metadata id="CorelCorpID_0Corel-Layer"/>
  <g id="_672938637920">
   <g id="_672759287184">
    <g id="_76635586768">
     <path class="fil0" d="M719 256c-10,-5 -7,1 -12,3 -1,0 1,0 -1,0 0,0 0,0 0,0 -2,1 -3,1 -5,0 -6,-4 -5,-3 -11,-1 -2,-9 -11,-5 -17,-1 -2,2 -2,6 -3,10 -1,6 0,5 -7,6 -2,1 -8,2 -10,4 -2,2 -2,5 -8,5 -16,0 -7,-7 -24,6 -4,3 -3,5 -6,7 -2,1 -3,2 -5,3 -4,2 -12,9 -13,14 0,7 1,5 -2,10 -4,5 1,12 -9,18 -3,1 -7,2 -8,6 -7,-1 -5,-1 -7,5 0,2 -1,1 -2,3 -2,2 1,8 -2,8 -5,0 -4,-3 -8,2 -1,1 -6,3 -6,4 0,4 2,4 2,7 -2,2 -3,3 -7,4 -5,3 -3,0 -7,0 -4,0 -6,3 -7,5 -2,4 -2,9 -7,11 -8,4 -16,7 -25,3 -2,-1 0,-1 -2,-1 -3,0 -1,2 -5,2 -3,0 -5,-2 -9,2 0,0 -1,2 -1,2 -1,1 -1,0 -1,2 -6,-4 -8,4 -11,5 -4,2 -3,0 -7,4 -8,6 -5,2 -12,0 -2,2 -3,3 -4,6 -7,0 -11,-1 -18,-1 -5,0 -7,2 -11,-1 -6,-4 -5,0 -10,0 -4,0 0,-5 -9,-3 -9,1 -11,-9 -14,4 -1,3 0,1 -2,2 -1,1 -3,1 -6,0 -3,-1 -1,-3 -5,-3 -4,0 -4,7 -5,10 -12,3 -12,-3 -16,-3 -2,0 -6,6 -6,8 -4,-2 -3,-5 -11,-1 -2,1 -9,8 -9,8 -4,0 -10,-7 -14,-2 0,0 -1,-1 -2,-1 -5,0 -14,5 -20,7 0,-3 -4,-12 -7,-12 -3,0 -3,1 -5,1 -4,-2 -6,-4 -10,-6 0,-5 0,-7 -6,-7 -6,0 -8,1 -13,4 -2,0 -2,0 -4,0 -1,1 -6,4 -7,5 -2,1 -5,2 -6,6 -4,0 -5,-1 -7,2 -2,2 -2,5 -7,4 -2,0 0,-1 -3,0 -4,0 -7,5 -11,5 -6,-1 -4,-4 -16,2 -3,1 -3,3 -5,5 0,1 -3,7 -3,8 0,3 3,12 5,12 7,0 3,-1 10,2 9,5 6,7 9,13 1,3 8,8 11,10 0,3 0,5 1,7 0,4 1,4 3,5 5,3 5,4 9,8 2,3 2,2 1,5 0,2 0,4 1,6 2,5 2,8 9,8 0,9 9,1 9,15 0,2 -2,6 -3,9 0,1 -3,2 -3,4 1,4 2,2 3,4 3,4 0,5 0,7 0,2 5,7 5,12 0,8 -2,10 4,15 3,2 1,-1 2,2 2,3 0,4 4,7 2,3 3,8 4,11 2,1 5,2 6,2 7,2 4,14 10,25l16 27c4,6 5,6 8,12 3,2 3,1 6,1 1,3 2,4 3,6 3,6 12,7 16,13 2,3 2,11 3,15 1,7 -2,9 -2,15 0,3 6,7 13,6 1,0 2,3 3,3 2,2 3,2 6,2 0,12 2,11 3,14 1,2 -1,12 -1,16 0,3 4,8 6,10 2,1 9,4 12,5 16,2 8,-3 18,-5 2,-1 3,-2 5,-3 4,2 5,1 10,1 3,0 4,6 9,0 3,-3 1,-1 5,-2 5,-1 6,-8 10,-10 14,-6 24,-8 40,-9 3,0 10,-1 13,0 6,2 6,10 13,1 7,-9 4,-5 3,-12 5,0 7,-2 7,-7 9,0 5,-7 10,-8 1,-1 3,-1 4,-2 1,-1 1,-4 3,-5 5,-4 3,-2 7,-9 2,-5 7,0 10,-5 2,-4 0,-8 4,-11l8 -8c1,-2 2,-3 3,-5 4,-7 10,2 10,-14 2,-1 3,-2 5,-3 3,-1 4,-2 4,-5 2,-6 1,-2 5,-4 3,0 4,-2 4,-6 4,1 5,0 8,-4 10,-12 0,-8 -2,-15 1,-1 1,-1 2,-2 3,-1 5,-2 5,-7 0,-4 -2,-3 -2,-6 1,-3 2,-5 2,-8 -1,-5 -1,-3 1,-7 7,-9 1,-8 1,-13 0,-2 9,-12 10,-14 3,-4 2,-4 3,-10 1,-3 1,-2 2,-4l16 -29c4,-5 1,-12 3,-15 4,-6 11,-12 16,-17 3,-3 3,-3 3,-9 2,-10 1,-11 -2,-21 -1,-3 -2,-5 -3,-9 0,-4 0,-10 -1,-12 1,-1 3,-2 4,-4 1,-4 1,-12 3,-15 2,-3 10,-5 14,-10 3,-4 5,-4 7,-7 4,-3 3,-1 8,-1 3,0 14,-10 18,-14 10,-8 4,-6 16,-16 10,-9 6,-12 17,-17 5,-2 11,-2 13,-9 0,-3 1,-5 1,-8 1,-3 7,-14 8,-15 1,-1 7,-3 8,-3 4,-1 6,0 7,-3 4,2 7,0 10,-3 3,-1 6,-2 7,-3 2,-2 4,-4 6,-6 3,-3 2,-3 7,-4 8,-1 0,-2 12,-8 2,-1 3,-2 5,-2 6,-3 13,7 17,-5 0,-2 2,-5 3,-7 4,1 5,3 10,2 1,-6 -1,-4 -2,-8 -1,-1 0,-5 1,-6 3,-7 6,1 6,-16 0,-2 -2,-3 -3,-3 0,-6 0,-5 -2,-8 -2,-2 -3,-4 -7,-4 4,-6 1,-7 -5,-9 -5,-1 -9,-3 -15,-5 0,-8 -5,-8 -8,-3 -2,4 1,5 -3,5 -6,1 -3,-1 -8,2 -11,10 -12,8 -26,13 -12,3 -10,4 -21,-1 -3,-1 -5,-2 -8,-2 -2,0 -6,1 -9,1 -4,0 -9,-5 -12,-7 -3,-1 -3,1 -6,3l0 0z"/>
     <path class="fil1" d="M519 406l1 8c-9,3 -10,-2 -14,6 -3,7 -6,4 -15,4 -6,14 -6,9 -3,26 4,25 3,23 1,48 -1,7 -2,7 -5,13 -4,6 -3,5 -11,7 -5,2 -13,5 -14,2l-1 -8c-1,-3 -1,-7 -1,-10 -6,2 -8,5 -15,6 -13,3 -31,6 -43,10 -4,1 -3,3 -5,6 -2,6 -4,11 -6,16 -1,5 -4,9 -6,15 -2,4 3,29 4,36 2,2 5,3 8,4 3,2 4,4 6,6 2,1 18,3 21,1 3,-2 6,-3 8,-5 4,-2 2,-5 5,-7 5,-2 15,-3 20,-5 2,-1 9,-10 11,-13 5,-6 17,-7 23,-15 1,-2 2,-6 3,-9 1,-3 4,-5 4,-8 0,-3 -1,-8 -1,-12 2,-2 6,-3 8,-5l7 -7c11,-12 8,-9 16,-5 1,-2 3,-4 5,-5 7,-6 -2,0 8,-14 3,-2 4,-4 6,-6 3,-4 1,-13 4,-17 0,-1 5,-4 7,-5 3,-2 4,-2 5,-5 4,-14 2,-12 -5,-23 -6,-8 -9,-4 -18,-15 -4,-4 -9,-7 -11,-11l1 -7 -8 3 0 0z"/>
     <path class="fil1" d="M498 530c0,3 1,9 1,11 0,3 -4,5 -5,8 -1,4 -1,8 -3,10 -8,10 -19,10 -24,16 -5,7 -7,11 -13,14 1,2 3,5 5,7 2,4 2,3 7,5 6,2 6,6 12,14 11,19 5,15 22,27 3,3 4,3 6,7l8 16c3,5 3,4 8,6 14,3 6,8 23,25 0,1 0,1 1,2 6,-6 3,-9 12,-12 1,-9 0,-8 8,-12 7,-5 1,-10 10,-11 0,-4 4,-7 10,-6 1,-1 1,-1 2,-4 -8,-3 -5,-6 -3,-12 1,-5 1,-3 4,-5 -5,-8 0,-6 0,-13 0,-2 -1,-4 -1,-7 1,-2 3,-2 4,-5 -2,-4 -5,-5 -9,-6 -6,-4 -4,-5 -6,-10 -2,-1 -10,-5 -12,-6 -2,-2 -9,-12 -11,-15l-9 -9c-7,-4 -17,-16 -24,-21 -3,-3 -6,-6 -9,-9 -3,-2 -6,-5 -9,-8l-5 3 0 0z"/>
     <path class="fil1" d="M437 593c-1,3 -1,9 0,11 3,5 3,1 4,10 0,4 0,9 0,13 1,8 1,6 -2,12 -3,9 9,5 -3,17 -7,6 3,13 4,18 2,10 -3,4 8,20 4,7 0,9 1,23 1,18 -1,11 -3,18 -1,1 -1,3 -1,6 -1,14 4,4 6,21l32 -3c5,0 5,3 9,4 3,-3 0,-3 1,-9 0,-6 2,-5 7,-6 1,-1 1,-3 2,-4 2,-3 3,-2 5,-3 3,-3 3,-6 6,-7 4,-2 1,1 3,-3 6,-8 2,4 9,-11 2,-5 4,-3 9,-5l1 -1c1,-4 -1,2 0,-1 1,-2 1,-5 2,-7 1,-2 5,-3 6,-5 -1,-3 -9,-11 -11,-15 -6,-11 -1,-9 -12,-13 -9,-2 -11,-10 -17,-21 -3,-6 -6,-8 -13,-12 -3,-3 -5,-3 -7,-7l-13 -24c-5,-9 -8,0 -15,-11 -1,-2 -4,-6 -4,-8l-14 3 0 0z"/>
     <path class="fil1" d="M256 576c1,4 4,8 4,11 -1,6 -3,8 2,11 5,2 2,6 5,9 3,4 3,5 5,11 14,1 10,16 14,22 6,-2 13,-5 19,-6 26,-3 16,1 41,-11 7,-3 8,-5 14,-11 3,-2 4,-4 7,-6l13 -12c3,-3 2,-3 1,-10 -1,-8 -2,-15 -3,-22 -1,-7 1,-12 5,-19 -7,-1 -14,0 -20,-1 -9,-1 -31,-6 -38,-5 -21,3 -14,1 -33,10 -16,6 -13,6 -25,18 -2,2 -4,4 -5,6 -3,2 -4,3 -6,5l0 0z"/>
     <path class="fil1" d="M725 262c-3,8 6,22 3,31 -2,8 -7,2 -10,10 -1,4 -2,10 -3,14 12,15 16,-1 2,41 -1,5 -1,5 -5,7 -5,4 -2,14 -5,19 -1,1 -7,3 -10,2l0 -6c-4,0 -16,-3 -19,-4 0,0 0,0 0,0l-6 9c-2,3 -5,6 -7,9 6,10 8,8 16,9 2,-3 2,-4 5,0 3,2 4,4 6,5 6,-4 5,-3 10,-10 3,-4 9,-8 12,-11 3,-3 6,-10 9,-12 3,-3 12,-4 15,-7 1,-3 1,-7 3,-11 1,-3 3,-6 4,-9 7,-10 4,-7 11,-10 7,-3 -3,-3 7,-3 5,-1 1,-2 7,-4 5,-1 6,-3 11,-3 4,0 4,-2 8,-6 8,-10 5,1 12,-8 3,-3 6,-3 9,-5 10,-5 7,-3 17,-2 2,-4 3,-12 11,-13 0,-3 0,-7 2,-10 2,-2 5,-2 5,-6 -2,-3 -3,-1 -4,-5 0,-2 1,-5 -1,-6 -4,-4 -6,2 -7,-10 -4,-1 -10,-4 -14,-5 -3,0 -3,1 -7,2 -3,1 -4,-1 -6,2 -5,2 -6,5 -11,7l-28 9c-5,1 -8,-1 -13,-3 -8,-4 -6,-3 -15,-2 -7,1 -8,-3 -14,-5l0 0z"/>
     <path class="fil1" d="M613 304c2,3 5,11 7,13l11 10c3,3 9,6 9,10 1,5 2,15 2,19 3,-2 11,1 16,3 9,3 7,3 12,8 3,2 5,1 7,3 3,3 1,3 7,4 5,1 12,2 17,4l0 4c4,0 3,-3 4,-7 4,-21 5,-3 10,-22 2,-6 4,-11 6,-17 2,-9 2,-7 -6,-14 -5,-3 -5,-2 -1,-15 3,-14 1,-8 9,-13 4,-3 1,-12 0,-17 -1,-8 -1,-11 -4,-13 -1,-1 -3,-1 -4,-2 -3,3 -1,4 -5,5 -7,1 -5,2 -9,1 -2,-1 -4,-4 -6,-4 -3,0 -4,3 -9,1 -2,-2 -1,-2 -3,-5 -5,2 -4,2 -6,8 -3,13 -1,9 -15,13 -5,2 -2,1 -4,4 -1,0 -4,1 -6,2 -13,6 -13,-3 -23,4 -9,7 -3,3 -7,8 0,1 -7,5 -9,5l0 0z"/>
     <path class="fil1" d="M548 482c0,7 -6,12 -10,17 -1,2 0,8 -12,14 1,2 4,11 6,12 2,4 31,13 34,18 5,6 3,10 19,16 5,3 7,3 11,6 3,3 5,6 11,7 3,-7 16,-27 18,-31 3,-9 -5,-10 6,-19l12 -13c6,-7 1,-24 -2,-27 -2,2 -4,4 -7,7 -7,4 -11,-7 -35,-5 -12,2 -12,2 -23,-2 -6,-2 -20,0 -28,0l0 0z"/>
     <path class="fil1" d="M288 643l20 36c1,1 3,0 4,1 1,1 1,1 2,2 2,2 1,0 4,4 2,2 0,0 2,2 1,0 1,0 2,2 2,4 -3,1 7,9 12,8 9,9 13,27 7,0 5,0 14,-9 3,-3 16,-15 16,-17 1,-4 -1,-7 0,-11 1,-7 6,-6 4,-17 -1,-11 -1,-10 2,-19 3,-7 7,-19 11,-23 3,-3 3,-3 5,-8 1,-6 3,-12 5,-18 -8,-6 0,-2 -14,-9 -4,2 -28,26 -33,30l-19 8c-8,4 -23,3 -32,6 -5,1 -9,3 -13,4l0 0z"/>
     <path class="fil1" d="M356 435c-2,2 -3,5 -6,7 -8,1 -6,-2 -9,-3 -2,4 -1,13 -1,18 -1,7 -6,7 -5,14 6,22 7,39 23,55 15,14 7,9 27,12 6,-10 5,-21 11,-23 3,-1 7,-2 10,-3 5,-1 14,-2 16,-9 1,-6 -3,-12 -5,-18 -4,-8 -5,-8 -10,-13 -5,-5 -4,-7 -7,-17 -1,-6 -2,-4 -5,-7 -1,-1 -7,-11 -9,-15 -2,-4 -2,-4 -8,-4 -1,2 0,2 -3,4 -4,4 -7,3 -13,3 -4,0 -4,0 -6,-1z"/>
     <path class="fil1" d="M342 730l-2 5c-1,5 2,1 11,4 13,4 8,14 12,19 1,2 2,3 2,6 0,9 -8,17 9,23 8,3 7,0 11,-3 4,-3 4,0 7,-3 2,0 3,-3 6,-2 4,0 2,2 7,1 5,0 3,0 6,2 4,-4 3,-1 4,-8l1 -35c0,-9 -4,-11 -4,-20 0,-8 1,-17 0,-25 -4,-2 -10,-7 -15,-7 -13,1 -10,-2 -18,-6 -3,9 -4,5 -3,17 0,5 -4,8 -9,13l-16 16c-3,4 -4,3 -9,3l0 0z"/>
     <path class="fil1" d="M256 431c-7,1 -5,-1 -10,2 -8,7 -2,4 -6,8 -2,1 -5,1 -8,1 -2,3 -1,4 -4,5 -10,5 -9,1 -12,2 -2,1 -5,3 -6,4 -5,1 -6,-3 -14,0 -5,2 -9,10 -5,12 0,0 2,0 2,0 6,3 16,8 18,15 2,7 0,4 8,11 5,4 4,5 6,13 8,3 6,4 12,11 3,4 3,3 2,8 -1,3 1,7 3,7 4,-1 2,-5 8,-8 2,-1 3,-1 5,-2 7,-4 -2,-4 12,-5 0,-3 -3,-7 -3,-11 -1,-4 3,-4 5,-8 -1,-2 -7,-7 -8,-8 -4,-6 -3,-36 -3,-42l3 -18c-5,0 -3,0 -5,3l0 0z"/>
     <path class="fil1" d="M413 690c0,-10 -2,-6 10,-15 3,-2 6,-3 7,-6 1,-5 0,-8 0,-12l8 -8c-2,-6 -5,-6 -2,-11 3,-7 2,-6 2,-13 0,-4 0,-12 -1,-15 -1,-2 -2,-2 -4,-4 -1,-2 -1,-2 -1,-6 -4,2 -10,7 -15,6 -17,0 -15,-3 -16,4 -9,33 -4,9 -14,32 -2,5 -5,10 -7,16 -2,3 -1,15 1,19 1,1 5,4 6,5 3,2 4,2 9,2 8,-1 11,4 17,6l0 0z"/>
     <path class="fil1" d="M455 423c-3,8 -8,3 -22,3 -2,6 0,21 3,26l21 40c5,10 3,11 5,25 2,0 8,-2 11,-3 7,-1 6,-2 9,-7 4,-7 3,-15 4,-26 2,-12 0,-17 -2,-28 -1,-10 -4,-16 1,-25 -4,-1 -4,0 -5,-3 -1,-3 -1,-5 -3,-7 -3,1 -3,0 -6,1 -3,1 -5,8 -16,4l0 0z"/>
     <path class="fil1" d="M271 518c-2,1 -7,1 -9,1 -2,1 -2,2 -5,4 -6,3 -7,1 -10,8l1 1c3,6 -1,3 5,7 4,2 3,5 4,9 1,8 0,6 -2,11 -2,4 -1,9 1,12l19 -19c5,-5 18,-10 25,-13 5,-2 8,-4 14,-4 6,-1 13,-2 18,-2 8,1 26,5 33,5 -5,-1 -41,-19 -45,-22 -8,-4 -15,-8 -23,-12 -5,-3 -4,-3 -12,-4 -8,-1 -3,3 -13,-1 -10,6 0,10 -1,19l0 0z"/>
     <path class="fil1" d="M598 426c-11,6 -14,0 -17,10 4,4 19,13 26,23 2,2 3,5 6,6 3,2 5,4 7,5 9,5 8,5 20,5 0,-3 -2,-13 -1,-16 3,-6 2,4 6,-13 2,-8 1,-7 7,-11 6,-3 8,-4 11,-9 -8,-2 -12,-4 -18,-7 -4,-3 0,-3 -6,-7 -5,-1 -5,-2 -10,-2 -2,1 -8,2 -10,2 -4,-1 -6,-3 -10,-1 -3,1 -7,3 -8,4 -3,4 -2,5 -3,11l0 0z"/>
     <path class="fil1" d="M505 524c2,1 4,4 6,5l38 35c6,6 1,0 10,11 9,12 5,11 17,15 10,4 1,7 9,11 3,2 5,3 7,4 -2,-4 -1,-5 2,-7 5,-7 10,-13 12,-22 -2,-1 -4,-1 -6,-3 -9,-5 -1,-4 -18,-11 -7,-3 -7,-3 -12,-7 -4,-3 -5,-9 -7,-11l-27 -12c-7,-3 -6,-1 -10,-8 -7,-18 -6,-15 -21,0l0 0z"/>
     <path class="fil1" d="M417 685l-1 36c1,4 2,7 3,11 1,6 -1,37 -1,47 2,-1 4,-4 5,-6 3,-3 3,-3 7,-4 6,-2 12,-5 18,-6 -1,-6 -1,-7 -5,-11 -3,-4 -2,-6 -2,-12 1,-10 2,-6 4,-11 1,-3 0,-10 0,-13 -1,-5 1,-9 1,-14 0,-5 -2,-7 -4,-11 -2,-2 -4,-5 -5,-10 0,-9 0,-5 -3,-11 -2,2 -1,2 -3,4 -1,1 -4,3 -5,4l-7 5c-3,1 -1,0 -2,2l0 0z"/>
     <path class="fil1" d="M632 376c0,5 -2,6 -4,9 -2,4 -14,18 -14,22 8,3 13,-1 19,0 3,0 7,2 9,3 6,3 2,3 6,6 3,2 12,6 17,6 4,1 4,-2 7,-4 3,-2 6,0 10,0 1,-2 2,-2 3,-3 2,-2 3,-3 4,-4 -7,-6 -3,-3 -17,-5 -3,-1 -3,-2 -6,-5 -7,-8 -6,-5 2,-16 9,-13 5,-11 -1,-17 -1,-1 -3,-3 -6,-4 -2,-1 -14,-5 -16,-5 -4,4 -9,14 -12,17l-1 0 0 0z"/>
     <path class="fil0" d="M655 339c3,-2 10,-7 13,-9 3,-3 9,-8 13,-9 4,3 1,4 9,1 7,-3 10,-6 14,-15 1,-2 4,-6 4,-9 -4,-5 -19,-9 -27,-12 -17,-5 -16,-2 -22,12 -2,3 -2,2 -5,4 -11,7 -14,6 -15,15 0,9 -2,9 4,14 3,2 9,7 12,8l0 0z"/>
     <path class="fil1" d="M549 478c7,1 22,-1 27,1 11,3 9,3 21,2 13,-1 13,-1 23,2 10,3 10,5 17,-2 1,-1 1,0 1,-1 -5,0 -8,0 -11,-2 -16,-9 -15,-6 -23,-18 -4,-5 -16,-14 -22,-19 -5,-4 -4,-2 -5,-5 0,-2 0,0 0,-2 -4,4 -9,2 -13,24 -1,7 -1,6 -8,10 -6,3 -5,2 -7,10l0 0z"/>
     <path class="fil1" d="M597 340c7,7 10,11 14,22 2,4 2,15 9,25l1 2c10,-11 7,-14 7,-15 1,-5 2,5 5,-11 3,-12 2,-8 5,-10 -2,-21 2,-13 -16,-29 -2,-2 -4,-3 -5,-5 -2,-3 -5,-9 -7,-12 -9,6 -4,11 -7,16 -1,2 -1,1 -2,3 0,2 0,4 -1,6 -1,3 -2,5 -3,8l0 0z"/>
     <path class="fil1" d="M643 313c0,4 -1,9 -1,13 5,4 8,6 12,9 7,-3 21,-19 28,-19l2 4c11,-3 17,-11 20,-21 -6,-4 -28,-12 -36,-11 -3,4 -6,13 -9,15l-16 10z"/>
     <path class="fil1" d="M316 445c5,7 1,20 0,29 -2,10 2,19 5,28 2,7 3,5 6,10 2,2 6,8 8,9 2,1 9,3 11,5 5,1 8,4 12,5 -2,-3 -5,-5 -7,-8 -12,-17 -9,-11 -14,-31 -1,-4 -6,-22 -6,-24 1,-8 6,2 5,-26 -3,2 -4,6 -9,6 -5,-1 -6,-5 -11,-3l0 0z"/>
     <path class="fil1" d="M294 456c1,8 -1,10 -6,20 -2,5 -9,16 -4,19 4,2 6,0 11,4 4,2 7,3 10,5 4,2 16,10 19,10 -5,-6 -4,-5 -7,-12 -12,-31 1,-34 -3,-53l-7 0c-2,2 -1,3 -5,4 -2,2 -6,3 -8,3l0 0z"/>
     <path class="fil1" d="M279 496c2,-7 -5,3 5,-19 2,-5 7,-14 7,-19 -1,-5 -4,-10 -6,-14 -2,-3 -1,-2 -4,-3 -8,-2 -11,-8 -17,-10 -3,7 -3,39 -2,49 1,5 1,5 4,8 2,2 8,10 13,8l0 0z"/>
     <path class="fil1" d="M565 442c3,-10 9,-8 14,-14 -3,-5 -2,-5 -6,-9 -5,-3 -4,-2 -6,-9 -1,-1 -2,-4 -2,-5 -1,-1 -6,-7 -8,-8 -3,-1 -2,0 -5,1 -6,-5 -3,-9 -12,-11 -3,12 -7,12 -8,17 -3,6 -4,5 6,14 10,9 4,4 15,10 5,4 7,11 12,14l0 0z"/>
     <path class="fil1" d="M387 429c2,4 9,15 12,18 4,4 3,2 5,9 4,16 3,8 12,19 2,2 3,7 5,10 2,7 8,16 2,23 5,-1 15,-2 19,-4 -7,-13 -15,-25 -19,-37 -2,-10 -2,-8 -10,-17 -1,-2 -2,-3 -3,-7 0,-6 -4,-9 -5,-13 0,-3 2,-4 1,-7 -2,-2 -4,-1 -8,-1 -4,-1 -3,0 -5,3 -2,3 -3,2 -6,4l0 0z"/>
     <path class="fil1" d="M446 503l9 -4c-1,-5 -23,-46 -24,-50 -1,-3 -2,-19 -2,-22 -2,0 -5,1 -7,0 -4,-1 -3,-5 -9,-2 -8,3 -2,6 0,13 3,7 -3,1 6,12 13,17 3,11 14,30l13 23 0 0z"/>
     <path class="fil1" d="M549 387l3 6c6,0 7,1 12,4 9,10 3,12 12,20 9,10 2,2 7,10l12 -4c0,-13 3,-5 7,-16 -11,-14 -11,-8 -25,-16 -5,-2 -9,-4 -14,-6 -3,-2 -4,-2 -7,-1 -2,1 -5,2 -7,3l0 0z"/>
     <path class="fil1" d="M576 358c2,6 17,12 20,19 2,5 6,9 9,11 3,4 3,10 7,13 6,-9 7,-6 4,-14 -8,-18 -5,-17 -12,-32 -3,-5 -7,-10 -10,-12 -3,2 -8,3 -9,7 -1,2 -1,4 -4,5 -3,1 -3,-1 -5,3l0 0z"/>
     <path class="fil1" d="M566 368l-3 4c1,4 -1,5 -2,8 7,3 19,10 26,12 9,2 7,0 12,6 2,2 3,3 5,5 3,4 1,3 2,5l3 -1c-1,-11 -13,-21 -14,-24 -5,-6 1,-3 -9,-11 -3,-3 -8,-6 -11,-8 -3,4 0,5 -9,4z"/>
     <path class="fil1" d="M480 413c0,3 1,5 2,7 1,3 1,4 5,5l2 -5 13 1c3,-11 5,-6 13,-10 0,-5 1,-4 -10,-4 -4,0 -9,-1 -14,-1 -3,5 -4,5 -11,7l0 0z"/>
    </g>
   </g>
  </g>
 </g>
</svg>
